
<svg data-v-fde0c5aa="" xmlns="http://www.w3.org/2000/svg" viewBox="0 0 300 300" class="iconAbove"><!----><defs data-v-fde0c5aa=""><!----></defs><rect data-v-fde0c5aa="" fill="#7521C8" x="0" y="0" width="300px" height="300px" class="logo-background-square"></rect><defs data-v-fde0c5aa=""><!----></defs><g data-v-fde0c5aa="" id="b31667a4-2a86-4d71-ae5a-a0473122462a" fill="#ffffff" transform="matrix(2.8214866597368746,0,0,2.8214866597368746,18.617471509821137,166.88605610192175)"><path d="M3.77 7.15L4.49 7.41L4.49 7.41Q5.25 7.67 5.75 7.99L5.75 7.99L5.75 7.99Q6.26 8.30 6.56 8.66L6.56 8.66L6.56 8.66Q6.86 9.02 6.99 9.40L6.99 9.40L6.99 9.40Q7.13 9.79 7.13 10.19L7.13 10.19L7.13 10.19Q7.13 10.81 6.86 11.33L6.86 11.33L6.86 11.33Q6.59 11.84 6.11 12.24L6.11 12.24L6.11 12.24Q5.63 12.63 4.95 12.85L4.95 12.85L4.95 12.85Q4.27 13.06 3.43 13.06L3.43 13.06L3.43 13.06Q2.63 13.06 1.85 12.87L1.85 12.87L1.85 12.87Q1.06 12.68 0.49 12.33L0.49 12.33L0.57 10.28L1.74 10.28L2.02 11.96L2.02 11.96Q2.34 12.11 2.67 12.20L2.67 12.20L2.67 12.20Q3.01 12.29 3.42 12.29L3.42 12.29L3.42 12.29Q4.30 12.29 4.79 11.89L4.79 11.89L4.79 11.89Q5.28 11.48 5.28 10.81L5.28 10.81L5.28 10.81Q5.28 10.28 4.94 9.97L4.94 9.97L4.94 9.97Q4.59 9.66 3.84 9.38L3.84 9.38L3.15 9.13L3.15 9.13Q1.90 8.68 1.21 7.95L1.21 7.95L1.21 7.95Q0.52 7.21 0.52 6.16L0.52 6.16L0.52 6.16Q0.52 5.57 0.75 5.08L0.75 5.08L0.75 5.08Q0.98 4.59 1.42 4.23L1.42 4.23L1.42 4.23Q1.86 3.88 2.48 3.68L2.48 3.68L2.48 3.68Q3.11 3.47 3.91 3.47L3.91 3.47L3.91 3.47Q4.68 3.47 5.36 3.66L5.36 3.66L5.36 3.66Q6.03 3.85 6.54 4.20L6.54 4.20L6.44 6.12L5.29 6.12L5.01 4.47L5.01 4.47Q4.73 4.35 4.47 4.30L4.47 4.30L4.47 4.30Q4.20 4.24 3.92 4.24L3.92 4.24L3.92 4.24Q3.22 4.24 2.74 4.61L2.74 4.61L2.74 4.61Q2.27 4.97 2.27 5.64L2.27 5.64L2.27 5.64Q2.27 6.23 2.66 6.57L2.66 6.57L2.66 6.57Q3.05 6.90 3.77 7.15L3.77 7.15ZM11.77 11.61L11.77 9.24L11.77 9.24Q11.51 9.31 11.28 9.39L11.28 9.39L11.28 9.39Q11.05 9.46 10.88 9.53L10.88 9.53L10.88 9.53Q10.26 9.77 10.02 10.14L10.02 10.14L10.02 10.14Q9.79 10.50 9.79 10.95L9.79 10.95L9.79 10.95Q9.79 11.23 9.86 11.40L9.86 11.40L9.86 11.40Q9.94 11.56 10.05 11.68L10.05 11.68L10.05 11.68Q10.35 11.97 10.84 11.97L10.84 11.97L10.84 11.97Q11.06 11.97 11.27 11.89L11.27 11.89L11.27 11.89Q11.48 11.82 11.77 11.61L11.77 11.61ZM14.52 11.70L14.88 11.97L14.88 11.97Q14.60 12.54 14.25 12.77L14.25 12.77L14.25 12.77Q13.89 12.99 13.36 12.99L13.36 12.99L13.36 12.99Q12.78 12.99 12.40 12.77L12.40 12.77L12.40 12.77Q12.03 12.54 11.87 12.18L11.87 12.18L11.87 12.18Q11.40 12.61 10.96 12.84L10.96 12.84L10.96 12.84Q10.51 13.06 9.86 13.06L9.86 13.06L9.86 13.06Q9.02 13.06 8.49 12.63L8.49 12.63L8.49 12.63Q7.97 12.21 7.97 11.38L7.97 11.38L7.97 11.38Q7.97 11.06 8.07 10.75L8.07 10.75L8.07 10.75Q8.18 10.43 8.46 10.13L8.46 10.13L8.46 10.13Q8.75 9.83 9.25 9.55L9.25 9.55L9.25 9.55Q9.76 9.27 10.56 9.00L10.56 9.00L10.56 9.00Q10.79 8.92 11.12 8.83L11.12 8.83L11.12 8.83Q11.44 8.74 11.77 8.64L11.77 8.64L11.77 8.22L11.77 8.22Q11.77 7.34 11.51 6.96L11.51 6.96L11.51 6.96Q11.24 6.58 10.57 6.58L10.57 6.58L10.57 6.58Q10.46 6.58 10.35 6.59L10.35 6.59L10.35 6.59Q10.25 6.59 10.14 6.61L10.14 6.61L10.02 7.42L10.02 7.42Q9.95 7.97 9.69 8.23L9.69 8.23L9.69 8.23Q9.42 8.50 9.06 8.50L9.06 8.50L9.06 8.50Q8.74 8.50 8.51 8.30L8.51 8.30L8.51 8.30Q8.27 8.11 8.20 7.78L8.20 7.78L8.20 7.78Q8.30 6.96 9.09 6.42L9.09 6.42L9.09 6.42Q9.87 5.88 11.21 5.88L11.21 5.88L11.21 5.88Q11.87 5.88 12.34 6.03L12.34 6.03L12.34 6.03Q12.81 6.17 13.10 6.50L13.10 6.50L13.10 6.50Q13.40 6.83 13.54 7.37L13.54 7.37L13.54 7.37Q13.68 7.91 13.68 8.69L13.68 8.69L13.68 11.58L13.68 11.58Q13.68 11.80 13.76 11.94L13.76 11.94L13.76 11.94Q13.85 12.08 14.03 12.08L14.03 12.08L14.03 12.08Q14.17 12.08 14.25 12.00L14.25 12.00L14.25 12.00Q14.34 11.91 14.45 11.79L14.45 11.79L14.52 11.70ZM17.14 4.72L17.14 4.72L17.14 4.72Q16.66 4.72 16.32 4.40L16.32 4.40L16.32 4.40Q15.97 4.09 15.97 3.60L15.97 3.60L15.97 3.60Q15.97 3.11 16.32 2.80L16.32 2.80L16.32 2.80Q16.66 2.49 17.14 2.49L17.14 2.49L17.14 2.49Q17.63 2.49 17.96 2.80L17.96 2.80L17.96 2.80Q18.30 3.11 18.30 3.60L18.30 3.60L18.30 3.60Q18.30 4.09 17.96 4.40L17.96 4.40L17.96 4.40Q17.63 4.72 17.14 4.72ZM18.13 12.07L18.93 12.24L18.93 12.85L15.34 12.85L15.34 12.24L16.20 12.07L16.20 12.07Q16.21 11.54 16.21 10.95L16.21 10.95L16.21 10.95Q16.21 10.36 16.21 9.91L16.21 9.91L16.21 9.21L16.21 9.21Q16.21 8.64 16.20 8.25L16.20 8.25L16.20 8.25Q16.18 7.87 16.17 7.45L16.17 7.45L15.23 7.32L15.23 6.79L17.95 5.88L18.16 6.02L18.12 8.02L18.12 9.91L18.12 9.91Q18.12 10.36 18.12 10.96L18.12 10.96L18.12 10.96Q18.12 11.55 18.13 12.07L18.13 12.07ZM26.45 12.00L27.47 12.24L27.47 12.85L24.84 12.85L22.99 9.58L22.32 10.22L22.32 10.22Q22.32 10.64 22.32 11.13L22.32 11.13L22.32 11.13Q22.33 11.62 22.33 12.07L22.33 12.07L23.18 12.24L23.18 12.85L19.60 12.85L19.60 12.24L20.45 12.07L20.45 12.07Q20.47 11.54 20.47 10.95L20.47 10.95L20.47 10.95Q20.47 10.36 20.47 9.91L20.47 9.91L20.47 4.10L19.42 3.96L19.42 3.40L22.18 2.77L22.37 2.88L22.32 4.87L22.32 9.37L24.84 6.90L23.80 6.75L23.80 6.13L27.02 6.13L27.02 6.75L25.75 6.92L24.30 8.30L26.45 12.00ZM29.72 4.72L29.72 4.72L29.72 4.72Q29.25 4.72 28.90 4.40L28.90 4.40L28.90 4.40Q28.56 4.09 28.56 3.60L28.56 3.60L28.56 3.60Q28.56 3.11 28.90 2.80L28.90 2.80L28.90 2.80Q29.25 2.49 29.72 2.49L29.72 2.49L29.72 2.49Q30.21 2.49 30.55 2.80L30.55 2.80L30.55 2.80Q30.88 3.11 30.88 3.60L30.88 3.60L30.88 3.60Q30.88 4.09 30.55 4.40L30.55 4.40L30.55 4.40Q30.21 4.72 29.72 4.72ZM30.72 12.07L31.51 12.24L31.51 12.85L27.93 12.85L27.93 12.24L28.78 12.07L28.78 12.07Q28.80 11.54 28.80 10.95L28.80 10.95L28.80 10.95Q28.80 10.36 28.80 9.91L28.80 9.91L28.80 9.21L28.80 9.21Q28.80 8.64 28.78 8.25L28.78 8.25L28.78 8.25Q28.77 7.87 28.76 7.45L28.76 7.45L27.82 7.32L27.82 6.79L30.53 5.88L30.74 6.02L30.70 8.02L30.70 9.91L30.70 9.91Q30.70 10.36 30.70 10.96L30.70 10.96L30.70 10.96Q30.70 11.55 30.72 12.07L30.72 12.07ZM34.89 6.02L35.03 7.39L35.03 7.39Q35.42 6.68 35.92 6.28L35.92 6.28L35.92 6.28Q36.43 5.88 36.92 5.88L36.92 5.88L36.92 5.88Q37.21 5.88 37.53 6.06L37.53 6.06L37.53 6.06Q37.84 6.24 37.95 6.75L37.95 6.75L37.95 6.75Q37.95 7.21 37.69 7.50L37.69 7.50L37.69 7.50Q37.42 7.78 36.97 7.78L36.97 7.78L36.97 7.78Q36.43 7.78 35.90 7.21L35.90 7.21L35.87 7.18L35.87 7.18Q35.62 7.42 35.40 7.72L35.40 7.72L35.40 7.72Q35.18 8.02 35.03 8.41L35.03 8.41L35.03 9.91L35.03 9.91Q35.03 10.36 35.03 10.93L35.03 10.93L35.03 10.93Q35.03 11.51 35.04 12.03L35.04 12.03L36.11 12.24L36.11 12.85L32.26 12.85L32.26 12.24L33.11 12.07L33.11 12.07Q33.12 11.55 33.12 10.96L33.12 10.96L33.12 10.96Q33.12 10.36 33.12 9.91L33.12 9.91L33.12 9.10L33.12 9.10Q33.12 8.81 33.12 8.60L33.12 8.60L33.12 8.60Q33.12 8.39 33.12 8.20L33.12 8.20L33.12 8.20Q33.11 8.01 33.10 7.83L33.10 7.83L33.10 7.83Q33.10 7.66 33.08 7.45L33.08 7.45L32.14 7.32L32.14 6.79L34.68 5.88L34.89 6.02ZM42.14 11.61L42.14 9.24L42.14 9.24Q41.87 9.31 41.64 9.39L41.64 9.39L41.64 9.39Q41.41 9.46 41.24 9.53L41.24 9.53L41.24 9.53Q40.63 9.77 40.39 10.14L40.39 10.14L40.39 10.14Q40.15 10.50 40.15 10.95L40.15 10.95L40.15 10.95Q40.15 11.23 40.23 11.40L40.23 11.40L40.23 11.40Q40.31 11.56 40.42 11.68L40.42 11.68L40.42 11.68Q40.71 11.97 41.20 11.97L41.20 11.97L41.20 11.97Q41.43 11.97 41.64 11.89L41.64 11.89L41.64 11.89Q41.85 11.82 42.14 11.61L42.14 11.61ZM44.88 11.70L45.25 11.97L45.25 11.97Q44.97 12.54 44.61 12.77L44.61 12.77L44.61 12.77Q44.25 12.99 43.72 12.99L43.72 12.99L43.72 12.99Q43.15 12.99 42.77 12.77L42.77 12.77L42.77 12.77Q42.39 12.54 42.24 12.18L42.24 12.18L42.24 12.18Q41.76 12.61 41.32 12.84L41.32 12.84L41.32 12.84Q40.88 13.06 40.22 13.06L40.22 13.06L40.22 13.06Q39.38 13.06 38.86 12.63L38.86 12.63L38.86 12.63Q38.33 12.21 38.33 11.38L38.33 11.38L38.33 11.38Q38.33 11.06 38.44 10.75L38.44 10.75L38.44 10.75Q38.54 10.43 38.83 10.13L38.83 10.13L38.83 10.13Q39.12 9.83 39.62 9.55L39.62 9.55L39.62 9.55Q40.12 9.27 40.92 9.00L40.92 9.00L40.92 9.00Q41.16 8.92 41.48 8.83L41.48 8.83L41.48 8.83Q41.80 8.74 42.14 8.64L42.14 8.64L42.14 8.22L42.14 8.22Q42.14 7.34 41.87 6.96L41.87 6.96L41.87 6.96Q41.61 6.58 40.94 6.58L40.94 6.58L40.94 6.58Q40.82 6.58 40.72 6.59L40.72 6.59L40.72 6.59Q40.61 6.59 40.50 6.61L40.50 6.61L40.39 7.42L40.39 7.42Q40.32 7.97 40.05 8.23L40.05 8.23L40.05 8.23Q39.79 8.50 39.42 8.50L39.42 8.50L39.42 8.50Q39.10 8.50 38.87 8.30L38.87 8.30L38.87 8.30Q38.64 8.11 38.57 7.78L38.57 7.78L38.57 7.78Q38.67 6.96 39.45 6.42L39.45 6.42L39.45 6.42Q40.24 5.88 41.58 5.88L41.58 5.88L41.58 5.88Q42.24 5.88 42.71 6.03L42.71 6.03L42.71 6.03Q43.18 6.17 43.47 6.50L43.47 6.50L43.47 6.50Q43.76 6.83 43.90 7.37L43.90 7.37L43.90 7.37Q44.04 7.91 44.04 8.69L44.04 8.69L44.04 11.58L44.04 11.58Q44.04 11.80 44.13 11.94L44.13 11.94L44.13 11.94Q44.21 12.08 44.39 12.08L44.39 12.08L44.39 12.08Q44.53 12.08 44.62 12.00L44.62 12.00L44.62 12.00Q44.70 11.91 44.81 11.79L44.81 11.79L44.88 11.70ZM52.81 12.07L53.61 12.24L53.61 12.85L50.02 12.85L50.02 12.24L50.88 12.07L50.88 12.07Q50.89 11.55 50.89 10.96L50.89 10.96L50.89 10.96Q50.89 10.37 50.89 9.91L50.89 9.91L50.89 8.57L50.89 8.57Q50.89 7.77 50.72 7.40L50.72 7.40L50.72 7.40Q50.55 7.03 50.06 7.03L50.06 7.03L50.06 7.03Q49.66 7.03 49.27 7.25L49.27 7.25L49.27 7.25Q48.89 7.46 48.48 7.85L48.48 7.85L48.48 9.91L48.48 9.91Q48.48 10.36 48.48 10.96L48.48 10.96L48.48 10.96Q48.48 11.55 48.50 12.07L48.50 12.07L49.29 12.24L49.29 12.85L45.71 12.85L45.71 12.24L46.56 12.07L46.56 12.07Q46.58 11.54 46.58 10.95L46.58 10.95L46.58 10.95Q46.58 10.36 46.58 9.91L46.58 9.91L46.58 9.11L46.58 9.11Q46.58 8.82 46.58 8.60L46.58 8.60L46.58 8.60Q46.58 8.39 46.57 8.20L46.57 8.20L46.57 8.20Q46.56 8.01 46.56 7.83L46.56 7.83L46.56 7.83Q46.55 7.66 46.54 7.45L46.54 7.45L45.60 7.32L45.60 6.79L48.13 5.88L48.34 6.02L48.44 7.13L48.44 7.13Q48.73 6.79 48.99 6.56L48.99 6.56L48.99 6.56Q49.25 6.33 49.52 6.17L49.52 6.17L49.52 6.17Q49.78 6.02 50.07 5.95L50.07 5.95L50.07 5.95Q50.36 5.88 50.72 5.88L50.72 5.88L50.72 5.88Q51.73 5.88 52.26 6.48L52.26 6.48L52.26 6.48Q52.79 7.07 52.79 8.34L52.79 8.34L52.79 9.91L52.79 9.91Q52.79 10.37 52.79 10.97L52.79 10.97L52.79 10.97Q52.79 11.56 52.81 12.07L52.81 12.07ZM60.76 7.15L61.49 7.41L61.49 7.41Q62.24 7.67 62.75 7.99L62.75 7.99L62.75 7.99Q63.25 8.30 63.55 8.66L63.55 8.66L63.55 8.66Q63.85 9.02 63.99 9.40L63.99 9.40L63.99 9.40Q64.12 9.79 64.12 10.19L64.12 10.19L64.12 10.19Q64.12 10.81 63.85 11.33L63.85 11.33L63.85 11.33Q63.59 11.84 63.10 12.24L63.10 12.24L63.10 12.24Q62.62 12.63 61.94 12.85L61.94 12.85L61.94 12.85Q61.26 13.06 60.42 13.06L60.42 13.06L60.42 13.06Q59.63 13.06 58.84 12.87L58.84 12.87L58.84 12.87Q58.06 12.68 57.48 12.33L57.48 12.33L57.57 10.28L58.73 10.28L59.01 11.96L59.01 11.96Q59.33 12.11 59.67 12.20L59.67 12.20L59.67 12.20Q60.00 12.29 60.41 12.29L60.41 12.29L60.41 12.29Q61.29 12.29 61.78 11.89L61.78 11.89L61.78 11.89Q62.27 11.48 62.27 10.81L62.27 10.81L62.27 10.81Q62.27 10.28 61.93 9.97L61.93 9.97L61.93 9.97Q61.59 9.66 60.83 9.38L60.83 9.38L60.14 9.13L60.14 9.13Q58.90 8.68 58.20 7.95L58.20 7.95L58.20 7.95Q57.51 7.21 57.51 6.16L57.51 6.16L57.51 6.16Q57.51 5.57 57.74 5.08L57.74 5.08L57.74 5.08Q57.97 4.59 58.41 4.23L58.41 4.23L58.41 4.23Q58.86 3.88 59.48 3.68L59.48 3.68L59.48 3.68Q60.10 3.47 60.90 3.47L60.90 3.47L60.90 3.47Q61.67 3.47 62.35 3.66L62.35 3.66L62.35 3.66Q63.03 3.85 63.53 4.20L63.53 4.20L63.43 6.12L62.29 6.12L62.01 4.47L62.01 4.47Q61.73 4.35 61.46 4.30L61.46 4.30L61.46 4.30Q61.19 4.24 60.91 4.24L60.91 4.24L60.91 4.24Q60.21 4.24 59.74 4.61L59.74 4.61L59.74 4.61Q59.26 4.97 59.26 5.64L59.26 5.64L59.26 5.64Q59.26 6.23 59.65 6.57L59.65 6.57L59.65 6.57Q60.05 6.90 60.76 7.15L60.76 7.15ZM68.43 6.58L68.43 6.58L68.43 6.58Q66.96 6.58 66.96 9.48L66.96 9.48L66.96 9.48Q66.96 10.96 67.33 11.66L67.33 11.66L67.33 11.66Q67.70 12.36 68.43 12.36L68.43 12.36L68.43 12.36Q69.17 12.36 69.54 11.66L69.54 11.66L69.54 11.66Q69.90 10.96 69.90 9.48L69.90 9.48L69.90 9.48Q69.90 6.58 68.43 6.58ZM68.43 5.88L68.43 5.88L68.43 5.88Q69.13 5.88 69.77 6.13L69.77 6.13L69.77 6.13Q70.41 6.38 70.90 6.85L70.90 6.85L70.90 6.85Q71.39 7.32 71.68 7.99L71.68 7.99L71.68 7.99Q71.97 8.65 71.97 9.49L71.97 9.49L71.97 9.49Q71.97 10.33 71.71 10.99L71.71 10.99L71.71 10.99Q71.44 11.65 70.97 12.11L70.97 12.11L70.97 12.11Q70.49 12.57 69.84 12.82L69.84 12.82L69.84 12.82Q69.19 13.06 68.43 13.06L68.43 13.06L68.43 13.06Q67.68 13.06 67.03 12.82L67.03 12.82L67.03 12.82Q66.37 12.57 65.91 12.11L65.91 12.11L65.91 12.11Q65.44 11.65 65.16 10.99L65.16 10.99L65.16 10.99Q64.89 10.33 64.89 9.49L64.89 9.49L64.89 9.49Q64.89 8.65 65.18 7.99L65.18 7.99L65.18 7.99Q65.46 7.32 65.95 6.85L65.95 6.85L65.95 6.85Q66.44 6.38 67.09 6.13L67.09 6.13L67.09 6.13Q67.73 5.88 68.43 5.88ZM84.13 12.07L84.92 12.24L84.92 12.85L81.40 12.85L81.40 12.24L82.25 12.05L82.25 12.05Q82.26 11.55 82.26 10.96L82.26 10.96L82.26 10.96Q82.26 10.37 82.26 9.91L82.26 9.91L82.26 8.57L82.26 8.57Q82.26 7.03 81.41 7.03L81.41 7.03L81.41 7.03Q81.05 7.03 80.64 7.27L80.64 7.27L80.64 7.27Q80.23 7.50 79.90 7.81L79.90 7.81L79.90 7.81Q79.91 7.94 79.92 8.07L79.92 8.07L79.92 8.07Q79.93 8.20 79.93 8.34L79.93 8.34L79.93 9.91L79.93 9.91Q79.93 10.37 79.93 10.96L79.93 10.96L79.93 10.96Q79.93 11.55 79.94 12.07L79.94 12.07L80.74 12.24L80.74 12.85L77.21 12.85L77.21 12.24L78.06 12.05L78.06 12.05Q78.08 11.55 78.08 10.96L78.08 10.96L78.08 10.96Q78.08 10.37 78.08 9.91L78.08 9.91L78.08 8.57L78.08 8.57Q78.08 7.03 77.21 7.03L77.21 7.03L77.21 7.03Q76.85 7.03 76.45 7.27L76.45 7.27L76.45 7.27Q76.05 7.50 75.70 7.83L75.70 7.83L75.70 9.91L75.70 9.91Q75.70 10.36 75.70 10.96L75.70 10.96L75.70 10.96Q75.70 11.55 75.71 12.08L75.71 12.08L76.48 12.24L76.48 12.85L72.95 12.85L72.95 12.24L73.81 12.05L73.81 12.05Q73.82 11.54 73.82 10.95L73.82 10.95L73.82 10.95Q73.82 10.36 73.82 9.91L73.82 9.91L73.82 9.10L73.82 9.10Q73.82 8.81 73.82 8.60L73.82 8.60L73.82 8.60Q73.82 8.39 73.82 8.20L73.82 8.20L73.82 8.20Q73.81 8.01 73.80 7.83L73.80 7.83L73.80 7.83Q73.79 7.66 73.78 7.45L73.78 7.45L72.81 7.32L72.81 6.79L75.35 5.88L75.56 6.02L75.66 7.13L75.66 7.13Q76.19 6.47 76.68 6.17L76.68 6.17L76.68 6.17Q77.17 5.88 77.87 5.88L77.87 5.88L77.87 5.88Q79.39 5.88 79.79 7.17L79.79 7.17L79.79 7.17Q80.05 6.83 80.31 6.59L80.31 6.59L80.31 6.59Q80.57 6.34 80.84 6.18L80.84 6.18L80.84 6.18Q81.12 6.02 81.43 5.95L81.43 5.95L81.43 5.95Q81.75 5.88 82.14 5.88L82.14 5.88L82.14 5.88Q83.15 5.88 83.63 6.48L83.63 6.48L83.63 6.48Q84.11 7.07 84.11 8.34L84.11 8.34L84.11 9.91L84.11 9.91Q84.11 10.37 84.11 10.96L84.11 10.96L84.11 10.96Q84.11 11.55 84.13 12.07L84.13 12.07ZM89.53 11.61L89.53 9.24L89.53 9.24Q89.26 9.31 89.03 9.39L89.03 9.39L89.03 9.39Q88.80 9.46 88.63 9.53L88.63 9.53L88.63 9.53Q88.02 9.77 87.78 10.14L87.78 10.14L87.78 10.14Q87.54 10.50 87.54 10.95L87.54 10.95L87.54 10.95Q87.54 11.23 87.62 11.40L87.62 11.40L87.62 11.40Q87.70 11.56 87.81 11.68L87.81 11.68L87.81 11.68Q88.10 11.97 88.59 11.97L88.59 11.97L88.59 11.97Q88.82 11.97 89.03 11.89L89.03 11.89L89.03 11.89Q89.24 11.82 89.53 11.61L89.53 11.61ZM92.27 11.70L92.64 11.97L92.64 11.97Q92.36 12.54 92.00 12.77L92.00 12.77L92.00 12.77Q91.64 12.99 91.11 12.99L91.11 12.99L91.11 12.99Q90.54 12.99 90.16 12.77L90.16 12.77L90.16 12.77Q89.78 12.54 89.63 12.18L89.63 12.18L89.63 12.18Q89.15 12.61 88.71 12.84L88.71 12.84L88.71 12.84Q88.27 13.06 87.61 13.06L87.61 13.06L87.61 13.06Q86.77 13.06 86.25 12.63L86.25 12.63L86.25 12.63Q85.72 12.21 85.72 11.38L85.72 11.38L85.72 11.38Q85.72 11.06 85.83 10.75L85.83 10.75L85.83 10.75Q85.93 10.43 86.22 10.13L86.22 10.13L86.22 10.13Q86.51 9.83 87.01 9.55L87.01 9.55L87.01 9.55Q87.51 9.27 88.31 9.00L88.31 9.00L88.31 9.00Q88.55 8.92 88.87 8.83L88.87 8.83L88.87 8.83Q89.19 8.74 89.53 8.64L89.53 8.64L89.53 8.22L89.53 8.22Q89.53 7.34 89.26 6.96L89.26 6.96L89.26 6.96Q89.00 6.58 88.33 6.58L88.33 6.58L88.33 6.58Q88.21 6.58 88.11 6.59L88.11 6.59L88.11 6.59Q88.00 6.59 87.89 6.61L87.89 6.61L87.78 7.42L87.78 7.42Q87.71 7.97 87.44 8.23L87.44 8.23L87.44 8.23Q87.18 8.50 86.81 8.50L86.81 8.50L86.81 8.50Q86.49 8.50 86.26 8.30L86.26 8.30L86.26 8.30Q86.03 8.11 85.96 7.78L85.96 7.78L85.96 7.78Q86.06 6.96 86.84 6.42L86.84 6.42L86.84 6.42Q87.63 5.88 88.97 5.88L88.97 5.88L88.97 5.88Q89.63 5.88 90.10 6.03L90.10 6.03L90.10 6.03Q90.57 6.17 90.86 6.50L90.86 6.50L90.86 6.50Q91.15 6.83 91.29 7.37L91.29 7.37L91.29 7.37Q91.43 7.91 91.43 8.69L91.43 8.69L91.43 11.58L91.43 11.58Q91.43 11.80 91.52 11.94L91.52 11.94L91.52 11.94Q91.60 12.08 91.78 12.08L91.78 12.08L91.78 12.08Q91.92 12.08 92.01 12.00L92.01 12.00L92.01 12.00Q92.09 11.91 92.20 11.79L92.20 11.79L92.27 11.70Z"></path></g><defs data-v-fde0c5aa=""><!----></defs><g data-v-fde0c5aa="" id="aa27da03-5676-45af-bf4d-fa5876ea8f12" stroke="none" fill="#ffffff" transform="matrix(0.609798590040042,0,0,0.609798590040042,119.00637789545631,95.65552767523687)"><g clip-rule="evenodd"><path d="M12.983 10.59l17.018 88.223-5.872-59.049 29.021-1.892-.054-9.883L64.549 1 53.622 18.977z"></path><path d="M59.389 54.548l5.16-53.541-8.74 39.716-19.612 1.045 1.57 20.462-7.766 36.583 12.057-39.899z"></path><path d="M62.8 67.182l.549-10.453-15.979 3.755-.032 11.797-17.337 26.532 21.68-27.616zM65.711 62.394l14.841-4.731 1.509-12.532-15.899 2.095zM72.07 44.502l10.988-1.417 1.581-10.278-8.079-.373L64.549 1l8.43 30.967z"></path><path d="M87.413 31.294l1.256-9.506-9.544-2.694L64.549 1l14.483 22.437-.422 7z"></path></g></g><!----></svg>